<?xml version="1.0" ?><svg xmlns="http://www.w3.org/2000/svg" xmlns:xlink="http://www.w3.org/1999/xlink" version="1.1" id="Layer_1" viewBox="0 0 512 512" enable-background="new 0 0 512 512" xml:space="preserve"><path d="M423.5,388c-10.4-18-20-36.3-26.8-56c-2.9-8.3-3.5-16.6-1.3-25.1c3.8-14.9,5-30,5-45.3c0-15.2,2.7-29.7,8.1-43.9  c5.9-15.5,9.5-31.6,10.3-48.2c0.4-8.3-1.1-16.5-7.7-21.8c-6.4-5.2-7.8-11.2-7.6-18.9c0.3-11-2.2-20.9-12.9-26.7  c-3.4-1.8-4.1-5.4-5-8.8c-2.2-8.7-4.5-17.5-11.1-24.2c-3.9-3.9-8.4-6.6-14.1-4.5c-5.9,2.2-9.3,6.5-10,12.9  c-0.6,5.8,0.3,11.5,1.1,17.2c3.3,25.8-1.6,50.2-12.5,73.6c-2.2,4.7-3.8,6.2-9.2,3.2c-24.4-13.6-53.8-6.1-69.3,17.2  c-1.6,2.5-3.1,5-4.9,7.7c-0.8-1.2-1.3-2-1.8-2.9c-16.8-28.2-44.8-36.3-73.8-21c-4.7,2.4-5.5,0.1-7-3c-11.4-23.5-16.5-48.1-13.4-74.2  c0.7-5.7,1.2-11.4,1.1-17.2c-0.1-6.7-4-11.2-10.2-13.4c-5.8-2-10.2,0.8-14,4.8c-5.2,5.4-8,12.1-9.4,19.3c-1.4,7.1-4,13-10.7,16.9  c-5.2,3.1-7.2,8.9-7.9,14.7c-0.6,4.9-0.9,10-0.8,14.9c0.1,3.8-0.7,6.6-3.9,9c-9,7.1-12,16.7-11.1,28c1.3,15.5,4.5,30.7,10.2,45.2  c5.6,14.4,8.3,29.2,8.5,44.6c0.1,11.7-0.4,23.8,3.1,35c5.8,18.5,2.3,35.5-5.8,52.1c-3.2,6.5-5.9,13.2-9.5,19.6  c-10.7,19.2-21.7,38.2-32.5,57.4c-4.2,7.5-3.5,9.8,4.4,13.1c19.9,8.3,40.5,10.6,61.7,7.2c10.8-1.8,18.7-6.5,20.4-18.5  c0.6-3.9,2-7.7,3.1-11.6c7.4-27,14.7-54,24.9-80.1c7.9-20.1,17.4-21.2,32.1-5.4c6.7,7.2,11.1,16,17.3,23.6  c6.3,7.7,14.1,9.1,21.6,3.2c3.4-2.7,5-1.9,7.9,0.2c7.2,5.2,15,4.2,20.6-2.7c3.3-4,6.1-8.5,9-12.9c4.5-6.7,9.4-13,15.7-18  c9-7.2,18.5-4.8,23,5.7c2.5,6,4.8,12.1,6.9,18.2c9.1,26.7,17.1,53.8,24.2,81.1c2.3,8.9,7.4,13.8,15.9,15.7  c23.2,5.1,45.7,2.1,67.4-7.1c5.6-2.4,6.6-6.1,3.4-11.3C438.5,414,431,401,423.5,388z M230.8,298.5c-9.5-8.8-19.9-16.7-27.3-27.6  c-6.1-9-10.5-18.7-12.4-29.5c-0.8-4.7-0.8-9.4,0.3-14.1c4.1-18.1,17.2-23.9,33.2-14.8c4.3,2.5,8.4,5.5,12.8,7.8  c6.4,3.3,12.5-0.9,18.3-0.9c5.8,0,12,4.2,18.3,0.9c4.6-2.4,8.8-5.6,13.4-8.2c15.5-8.6,28.2-3,32.5,14.2c1.9,7.5,1,14.9-1.2,22.2  c-4.2,14.3-12.1,26.2-22.8,36.4c-6,5.7-12.3,11-18.3,16.6c-8.1,7.4-16.6,14.4-21.6,26.9C250.1,314.6,239.9,307,230.8,298.5z"/><path d="M299.8,266.3c4.8-7.1,7.7-15.1,8.2-23.8c0.6-15.6-12-24.6-26.5-18.8c-7.8,3.1-14.6,7.8-20.1,14c-4.1,4.6-6.5,5.8-11,0.3  c-5.4-6.5-12.7-11.3-20.7-14.3c-14.3-5.4-26.5,3.4-26.1,18.7c0.2,7.9,2.8,15.2,6.9,21.9c9.8,15.8,23.7,27.5,38.9,37.6  c4.5,3,8.9,2.7,13.3-0.2C277,292,290,280.8,299.8,266.3z"/><path fill="#FFB6B9" d="M414.6,386.7c-10.9-19.4-21.2-39.1-26.9-60.8c-1-3.7-1.4-7.2-0.7-11c3.2-17.4,6.7-34.8,6.4-52.7  c-0.3-16.6,3-32.7,9.1-48.3c5.6-14.5,8.8-29.7,9.4-45.3c0.2-6.8-1.2-13.3-8.3-17.5c-0.6,3.8-1.3,6.9-1.7,10.1  c-2.3,16.2-6.8,31.7-13.3,46.7c-1,2.3-2,5.2-5.2,3.9c-3.2-1.3-2.2-3.9-1.2-6.4c1.5-3.7,3-7.4,4.4-11.2c8-23.2,12-46.9,9.6-71.4  c-0.5-4.9-1.6-9.7-7.8-12.9c0.6,23.1-5.9,43.8-11.3,64.7c-0.7,2.7-1.1,6.8-5.4,5.3c-3.7-1.2-2-4.6-1.3-7.1  c2.7-11.4,5.7-22.8,8.3-34.2c4-17.4,3.5-34.7-2-51.8c-1.6-4.8-3.6-9.4-7.2-13c-4.7-4.7-10.2-3.1-11.8,3.2c-1,4-0.3,8,0.3,11.9  c4.8,30.2-0.5,58.7-14.4,85.7c-1.9,3.6-1.4,5.7,1.4,8.4c6.9,6.7,12.2,14.6,14.3,24.2c0.6,2.7,1.4,5.9-2.5,6.7  c-3.5,0.7-3.6-2.4-4.3-4.8c-5.3-17.9-17.5-29.7-34.8-35.3c-24.6-7.9-50.6,7.1-56.7,31.7c-0.7,2.9-1.7,6.1,1.1,8.4  c2.9,2.4,6.2,1.8,9.2,0.2c4.1-2.3,8-5.1,12.1-7.5c20.5-11.8,39.4-3.1,44,20.1c1,5,1.1,9.9,0.3,14.9c-3.2,19.8-13.2,35.9-27.7,49.4  c-8.6,8-17.4,15.7-26,23.7c-7.5,7-12.7,15.5-14.1,25.8c-0.8,5.8,0.8,11.2,7,13.4c5.9,2.1,8.7-2.4,11.3-6.3  c5.9-8.6,11.4-17.6,19.1-24.9c15.9-15.3,33.2-10.9,40.4,10.1c10.6,31,20.4,62.2,28.5,93.9c2,7.7,6.3,11.3,13.7,12.6  c18.9,3.3,37.3,1.1,55.3-5.1c5.3-1.8,5.3-4.2,2.6-8.6C429.5,412.7,421.9,399.7,414.6,386.7z"/><path fill="#FFB6B9" d="M236.6,313.2c-8.4-7.5-16.8-15-25-22.6c-12.8-11.8-21.9-25.9-26.3-42.8c-2.6-9.9-2.6-19.8,1.7-29.3  c6.9-15.5,19.9-20.9,35.6-14.5c4.1,1.7,7.8,4.4,11.7,6.6c2.6,1.5,5.1,3.3,7.9,4.2c6.3,1.9,9.9-1.3,8.5-7.7  c-0.9-4.4-2.2-8.6-4.6-12.6c-10.2-16.7-27.2-25.3-46.5-21.7c-20.7,3.8-34.1,16.7-40.6,36.6c-0.8,2.4-0.8,5.5-4.2,5  c-3.8-0.6-3.2-3.9-2.6-6.6c2-9.6,7.3-17.4,14.1-24.3c2.6-2.7,3.4-4.8,1.5-8.4c-14.4-27.4-19.4-56.5-14.5-87.1  c0.6-3.5,1.1-7,0.1-10.4c-1.7-6.4-7.1-8-11.8-3.3c-3.2,3.2-5.2,7.3-6.7,11.6c-6.2,18.3-6.6,36.8-2,55.4c2.7,11.2,5.6,22.3,8.4,33.4  c0.7,2.6,1.1,5.2-2.3,6c-2.9,0.6-3.8-1.7-4.5-4c-0.5-1.7-1-3.3-1.5-5c-5-19.8-11.1-39.4-10.5-61.7c-8.4,6-8.2,13.6-8.4,20.7  c-0.7,25.6,4.3,50.2,14.2,73.8c1.1,2.5,3.7,6-0.4,7.8c-4.2,1.9-4.7-2.3-5.9-4.9c-5.5-12.7-9.6-25.7-11.9-39.4  c-0.9-5.3-1.8-10.6-2.9-16.5c-7.7,5.7-8.7,12.9-8.1,20.6c1.1,14.8,4.1,29.3,9.6,43c6.6,16.5,9.2,33.6,9.2,51.3  c0,10.8-0.2,21.8,3.2,32c5.8,17.6,2.5,33.9-4.8,49.9c-2.8,6.1-5.5,12.3-8.4,18.4c-10.1,20.7-22.2,40.3-33.7,60.1  c-1.9,3.3-3.7,6,1.7,7.9c18.5,6.4,37.3,9,56.8,5.3c7-1.3,11.2-4.9,13.1-12.3c8.3-32.2,18-64,28.7-95.4c6.4-18.8,23.4-23.7,38-10.7  c3.2,2.8,6.2,5.9,8.7,9.2c5,6.5,9.4,13.6,14.5,20c5,6.4,13,4.7,15.5-3c1.4-4.2,0.8-8.4-0.6-12.5  C248.1,326.3,243.2,319.2,236.6,313.2z"/><path fill="#E00B1B" d="M300.8,243.9c1.4-11.9-6.9-18.1-17.8-13.3c-8.6,3.8-15.8,9.7-21.5,17c-4.2,5.4-7.6,5.2-11.8-0.1  c-5.9-7.6-13.3-13.5-22.3-17.2c-9.5-3.9-17.2,1.5-17.1,12.4c0.7,9.7,5.1,18.6,11.7,26.3c8.1,9.5,17.6,17.6,27.7,25  c4.4,3.3,7.9,2.9,12.1-0.2c10.3-7.6,19.9-15.9,28.1-25.7C295.8,261.2,299.8,253.1,300.8,243.9z"/></svg>