<?xml version="1.0" ?><svg xmlns="http://www.w3.org/2000/svg" xmlns:xlink="http://www.w3.org/1999/xlink" version="1.1" id="Layer_1" viewBox="0 0 512 512" enable-background="new 0 0 512 512" xml:space="preserve"><path d="M72.1,199.6c-6.3,11-8.2,23-8.1,35.5c-0.1,16.2,3.6,31.6,10.3,46.3c15,32.8,39.6,56.4,70.8,73.7  c27.9,15.4,57.3,25.2,89.7,23.8c2.7-0.1,4.9-0.8,7.2-2.2c10.8-6.2,19.9-14.4,28.1-23.6c2.2-2.5,3.6-2.8,6-0.1  c5.2,5.9,11.5,10.8,17.3,16.1c10.8,10.1,23.2,12.1,37.2,9c36.5-8.1,67.5-25.6,91.3-54.5c20.5-25,30.8-53.7,24.3-86.5  c-3.3-16.7-12.9-27.9-30.2-31.9c-11.4-2.6-22.4-2.8-33.6,0.7c-10.4,3.2-20.5,7.1-29.4,13.3c-4,2.7-5.7,1.7-7.8-2  c-7.6-13-17.7-23.8-30-32.5c-2.7-1.9-4.5-4-5.8-7c-4.9-11-11.3-21-19.9-29.5c-9.6-9.4-20.5-16.6-34.6-15.4  c-17.4,1.5-33.1,7.5-45.6,20.5c-10.6,10.9-19.7,22.8-26.1,36.5c-1.6,3.5-3.2,4.1-6.6,2.1c-8.1-4.7-16.8-8.1-25.7-11  c-20.9-7-41.4-7-61.5,2.9C81.8,187.3,76.1,192.5,72.1,199.6z"/><path fill="#FF5F8D" d="M86.9,245.5c2.5,14.9,9,28.3,17.6,40.6c20.3,29,47.8,49.4,78.8,65.5c14.1,7.4,28.6,14.2,43.7,19.3  c7,2.4,12,1,16.5-5.1c5.7-7.7,10.4-15.9,15.7-23.9c2.6-3.9,2.7-6.8-0.1-10.8c-7.1-10.1-12.9-20.9-16.9-32.6c-1.3-3.9-2.4-3.5-4.9-1  c-10.4,10.1-22.4,15.9-37.6,14.6c-20.9-1.8-37.9-11.9-53.6-24.6c-3.7-3-5.5-8.3-11.7-6.4c-1.2,0.4-2.5-0.7-2.7-2.2  c-0.2-1.9,1-2.7,2.6-2.8c3.6-0.3,6.2-2.1,8.1-5c1-1.5,1.8-3.7,4.1-2.4c2.5,1.4,1.5,3.7,0.1,5.2c-2.7,3-1.1,4.7,1.2,6.6  c12.7,10.6,26.4,18.6,44.4,17.7c13.3,0.3,25.9-3.9,37.8-11.3c5.1-3.2,6.8-6.3,5.6-12.7c-4.9-27.9-1.5-54.5,15-78.4  c7-10.1,15.8-17.9,28.4-20.1c3.5-0.6,2.7-2.1,1-3.9c-12-12.7-30.7-22.2-52.3-11.8c-7,3.4-13.2,8-18.4,13.8c-6,6.9-12,13.9-17.6,21.1  c-7.9,10.1-7.6,10-19.9,6.2c-12.8-3.9-25.5-8.5-39.1-8.7C102.6,191.8,81.9,215.8,86.9,245.5z M210.4,221.7c1.5-6.3,7-8.3,12.1-4.4  c5.5,4.1,7.8,9.9,8,16.3c-0.1,4.4-1.1,8.2-5.3,9.6c-4.2,1.4-7.2-0.7-10-3.8C210.8,234.2,208.7,228.5,210.4,221.7z M159.6,237.3  c2.2-6.5,7.9-7.9,12.8-3.1c4.2,4,5.9,9.1,6,17.2c0,2.5-1.1,7.1-6.4,8.6c-5.2,1.4-8.1-2.3-10.4-6.3  C158.8,248.6,157.7,243.1,159.6,237.3z"/><path fill="#A089E4" d="M69.4,228.1c-1.5,24.7,5.4,47.2,18.6,67.8c22.9,35.7,56.5,57.2,96,70.6c9.7,3.3,19.7,5.5,30.1,5.4  c-5.8-2.6-11.6-5.2-17.4-7.9c-34.8-16.2-66.4-36.7-90.6-67.1c-11.3-14.2-19.9-30-23.7-47.9c-7.5-35,18.1-64.2,53.7-61.6  c7.9,0.6,15.5,2.6,23.1,4.6c2.1,0.6,4.2,1.8,8.2,0.8c-20.6-8-39.7-15.3-60.9-9.7C81.4,189.5,71,202.2,69.4,228.1z"/><path fill="#FFB6B9" d="M316.2,201.4c-23.1-15.5-50.1-6-58.6,20.5c-2.7,8.5-3.5,17.2-3.8,25.1c0,6.8,0.5,12.6,1.4,18.5  c6,38.6,25,70.9,48.6,100.9c7,8.9,9.3,9.3,19.6,4.5c24.2-11.3,47-24.9,66.5-43.3c18.5-17.5,33.7-37.4,38.8-63.2  c5.9-29.7-16-51.6-45.8-46c-9.6,1.8-18.6,5.6-27.6,9.2c-9.3,3.7-9.6,3.5-16.3-3.9C332,215.6,325.1,207.4,316.2,201.4z M311.7,247.3  c2-3.2,4.6-6.2,8.8-5c4.2,1.2,4.6,5.2,5,9.3c-0.8,5.1-1.4,10.7-7.3,13.4c-4.3,2-7.7,0.5-8.8-4.1  C308.2,256.1,309.1,251.5,311.7,247.3z M356.3,256.4c1.7-2.5,4-4.5,7.3-4c3.4,0.6,4.6,3.4,5.3,6.3c0.4,1.4,0.4,2.9,0.4,3.6  c-0.2,4.5-1.2,8-3.6,11c-4,5-9.1,4.2-11.4-1.7C352.3,266.3,353,261.2,356.3,256.4z M378.7,294.1c2.5-2.5,6.1-4.7,2.1-8.8  c-1-1-0.9-2.5,0.5-3.3c1.5-0.9,2.4,0.2,3.1,1.3c1.7,2.6,4,4.2,7.3,4.2c1.2,0,2.2,0.5,2.3,1.8c0.1,1.7-1.3,2.4-2.5,2.2  c-4.4-0.9-5.8,2.5-8.1,5c-11.2,12-30.2,25.3-52.5,25.8c-10.7-0.7-21.4-6.6-29.8-16.4c-9-10.5-15.9-22.4-18.5-36.2  c-0.5-2.6-1.7-3.7-3.9-4.6c-1.2-0.5-2.4-1.4-1.9-2.9c0.7-1.9,2.1-1.6,3.6-0.9c2.7,1.2,5.4,0.8,7.9-0.7c1.2-0.7,2.5-1,3.4,0.3  c1,1.4,0.1,2.7-1.1,3.2c-4.9,1.8-3.3,5-2.2,8.4C301.1,310.7,349.9,322.5,378.7,294.1z"/><path fill="#40CAD2" d="M432.6,267c-2.3,8.7-5.2,17.2-9.5,25.2c-10.9,20.2-26.4,36.4-44.3,50.4c-14.9,11.7-31.2,21-47.7,30.2  c6.2-0.4,12-2.2,17.6-4.3c38.1-14.2,69.1-36.7,86.3-75c8.2-18.2,11.3-37.2,6.6-56.8c-2.6-10.7-7.7-19.9-18.5-24.5  c-22.4-9.7-42.8-3.2-62.6,7.9c5.8-1.3,11.4-3.4,17.1-5C420.7,203.7,439.5,240.4,432.6,267z"/><path fill="#A089E4" d="M218,159.5c22.3-15,49.3-11.6,66,9.5c5.4,6.8,11.9,8,20.1,9.8c-5.5-11.5-12.1-21-20.7-29  c-12-11.2-25.5-14.3-41.6-9.7c-22.6,6.4-36.1,22.8-48.2,41.1c-0.9,1.4-2.1,2.8-2.2,5.7c3.7-4.4,6.7-8,9.8-11.6  C206,169.2,211.6,163.8,218,159.5z"/><path fill="#40CAD2" d="M252.9,199.7c-6.5,9.8-10.4,20.6-12.7,32c-6.5,32.5,1.9,62.1,18.1,90.1c9.4,16.2,21,30.4,36.5,42.4  c-0.1-1.3,0-1.8-0.2-2c-2-2.9-4-5.7-6-8.6c-17.4-24.9-31.1-51.5-36.9-81.6c-3.5-18.1-3.8-36.2,2.5-53.8c9.8-27.2,39.5-36.8,63.4-21  c7.2,4.8,12.7,11.4,19.5,16.6c-9.7-13.1-19.8-25.7-36.2-31.1C279.7,175.7,265.5,180.8,252.9,199.7z"/><path fill="#A089E4" d="M267,342.6c-2.2-1.8-2.6,0.9-3.3,2c-3,4.9-5.9,9.9-8.8,14.8c0.3,0.2,0.7,0.4,1,0.6c4-4,7.9-8,11.9-12  C270,345.9,268.7,344,267,342.6z"/></svg>