<?xml version="1.0" ?><svg xmlns="http://www.w3.org/2000/svg" xmlns:xlink="http://www.w3.org/1999/xlink" version="1.1" id="Layer_1" viewBox="0 0 512 512" enable-background="new 0 0 512 512" xml:space="preserve"><path d="M126.9,231.5c6.4,5.6,13.8,9.9,21.1,14c7.7,4.3,7.8,4.3,12.9-3.1c2.4-3.5,4.9-7,7-10.6c4.2-7.1,7-14.6,7.4-21.6  c0.1-10.6-4.4-17.8-11.4-19.8c-6.3-1.8-12.4,1.3-16.6,8.4c-3.8,6.5-3.8,6.5-10.8,3.6c-4.7-2-9.6-3.1-14,0.5  c-4.4,3.6-5.3,8.6-4.6,13.9C118.8,223,122.4,227.6,126.9,231.5z"/><path d="M344.5,261.8c9.4-1.3,18.4-3.6,25.4-10.6c3.4-3.4,4.8-7.5,2.2-12c-2.6-4.5-6.8-5-11.1-3.5c-3.5,1.2-4.8,0.3-6.3-2.8  c-2-4.3-5.3-7.8-10.6-7.4c-5,0.4-7.4,4.4-9.3,8.5c-1.2,2.6-1.6,5.4-1.6,8.9c0.2,6.2,3.1,11.9,7.1,17.3  C341.4,261.4,342.8,262.1,344.5,261.8z"/><path d="M365.3,91.1c-18.5-7-37.2-7.4-56-0.6c-8.3,3-16.6,6.2-24.3,10.5c-7.5,4.2-13.3,3.2-19.1-3c-5.6-6.1-12.2-11.2-18.7-16.4  c-14.2-11.4-30.5-16.8-48.5-17.4c-28.4-1-47,16.1-48.5,44.5c-0.8,13.8,1.7,27.1,7.3,39.7c6.8,15.2,14.9,29.7,23.5,43.9  c13,21.4,29.1,40.4,48.2,56.7c8.9,7.6,8.9,7.5,3,17.5c-1.4,2.4-3.8,5.4-1.8,7.8c3.1,3.6,1,6.1-0.3,9c-7.9,17.8-5.6,26.8,9.6,38.6  c2.7,2.1,5.3,4.1,7.9,6.3c3.2,2.6,6,5.5,8,9.1c4.7,8.4,2.3,18.5-5.9,24.4c-2-5.9-4.6-11.5-9.6-15.5c-5.6-4.5-12.8-5.1-17.6-1.3  c-5.2,4.1-6.7,12-3.5,18.3c3.2,6.4,11.4,10.5,20.4,9c5.4-0.9,6.1,0.7,5.6,5.5c-1.4,11.7-3.3,23.4-3.3,35.3  c0.1,12.6,5.4,22.8,13,32.2c0.8,1.1,2.2,1.8,3.4,2.4c1.4,0.7,2.8,0.6,3.7-0.9c0.8-1.3,0-2.3-0.9-3.2c-12-11.4-15.7-25.5-13.7-41.5  c1.1-8.8,2.1-17.5,2.7-26.4c0.3-4.4,1.5-7.7,4.8-11c11.2-11,11.1-25.5-0.1-36.6c-4.1-4.1-8.8-7.6-13.3-11.3  c-12-9.5-13.8-20.8-5.6-33.9c1-1.6,1.8-2.6,3.7-1.4c6.4,4.1,13.1,3.2,19.9,1.3c6.7-1.8,8.3-4.4,6.9-11.2  c-2.4-11.3-2.4-11.3,8.2-15.8c41.2-17.3,74.1-45.6,102.8-79.1c8.8-10.2,13.7-22.6,16.1-35.9C397.5,118.1,387,99.2,365.3,91.1z   M237.4,367.2c-5.1-0.1-9.5-1.2-12.7-4.9c-3.1-3.7-3.1-9.1-0.2-12.6c2.7-3.2,6.9-3.4,11.4-0.4c4.9,3.2,7.7,7.9,8.4,13.4  C245.1,368.7,239.6,366,237.4,367.2z"/><path fill="#40CAD2" d="M129.2,226.7c6.6,6.2,14.4,10.7,22.3,15.1c1.3,0.7,2.5,1.5,3.7-0.1c7.4-10,14.4-20.1,15.2-32.6  c-0.1-1.8-0.1-3-0.4-4.2c-0.9-4.6-2.8-8.5-7.8-9.6c-5-1-7.9,2.2-10.2,5.9c-1.7,2.7-2.9,5.7-3.6,8.8c-0.9,3.7-2.9,4.1-5.7,2  c-3.1-2.4-6.3-4.5-10.1-5.7c-5.2-1.5-8.7,0.6-9.5,6C122,218.3,125.1,222.8,129.2,226.7z"/><path fill="#FF5F8D" d="M355.2,254.3c4.4-1.5,8.4-3.5,11.6-7c1.5-1.7,2.4-3.6,1-5.7c-1.3-2-3.2-1.9-5.2-1.3  c-1.2,0.3-2.4,0.7-3.4,1.3c-4.2,2.7-6.4,1.5-7.5-3.2c-1-3.9-2.7-8.2-7.2-7.8c-4.3,0.5-5.3,5.1-6.1,9c-0.1,0.7-0.2,1.4-0.2,1.7  C338.1,253.7,344,258.1,355.2,254.3z"/><path fill="#FF5F8D" d="M376.4,103.7c2,8.5,1.9,16.8,0,25.2c-2.7,12.2-7.4,23.5-14,34.1c-11.2,18-26.3,32.2-43.3,44.5  c-31.6,22.8-66.2,29.2-105.3,19.6c9.5,10,18.6,19.1,29.5,26c5.4,3.4,11.4,4.3,17.8,2.2c7.4-2.3,14.6-5.2,21.6-8.6  c35.3-17.1,64-42.4,89.4-71.7c9.8-11.3,15.7-24.8,16.9-39.9C390,122.8,386.4,111.9,376.4,103.7z"/><path fill="#FF5F8D" d="M258.6,262.8c-4.6-2.6-11.3-3.6-16.5-2.4c-2.9,0.7-4.6,6.9-6.8,10.8c-0.8,1.4,0.4,2.3,1.5,2.9  c4.1,2.7,8.3,5.4,13.6,5.5c3.1-0.7,6.1-1.4,9.2-2.2c1.1-0.3,2.1-1,1.8-2.2C260.7,270.9,261.1,264.2,258.6,262.8z"/><path fill="#FF5F8D" d="M169,136.9c24.3,13.3,49.7,23.8,76.5,30.8c9.4,2.5,19.1,3.4,28.9,3.5c3.7-0.2,7.4-0.2,11.1-0.5  c27.5-2.1,47.4-15.7,60-40.1c3.7-7.2,5.6-14.9,4-23.1c-2.2-11.7-9.6-17.3-21.3-16.4c-5.5,0.4-10.7,2-16,3.7  c-11.8,3.8-22.6,10-34.2,14.3c-3.1,1.1-5.1,0.8-7.6-1.2c-10.3-8.1-19.2-17.8-29.9-25.3c-16-11.1-33.6-15.3-52.8-12.8  c-13.2,1.7-22.3,9-28.1,20.8c-3.3,6.6-3.8,13.8-4.6,21.1C153.7,123.7,158.8,131.3,169,136.9z M285.2,152c0.3-5.1,4-10,7.2-10  c3.1,0,6.1,5.2,6.1,11.5c-0.2,0.8-0.4,2.6-1.1,4.2c-1.1,2.6-3,4.4-6,4.4c-3.2,0-4.6-2.3-5.5-4.9C285.4,155.6,285.1,153.8,285.2,152z   M238.6,140.9c0.4-0.8,0.9-1.6,1.5-2.2c1.8-1.9,3.4-4.5,6.5-3.7c3,0.8,3.3,3.8,3.9,6.4c0.2,0.8,0.2,1.7,0.3,2.6  c-0.2,4.6-1.9,8.3-6.1,10.4c-2.2,1.1-4.2,0.2-5.6-1.6C235.9,149,236.7,144.9,238.6,140.9z"/><path fill="#40CAD2" d="M271.3,224c25.5-4.9,46-19.3,64.6-36.6c16.9-15.7,29.4-34.3,35.1-56.9c1.8-7.3,2.4-14.6,0.9-22  c-2.3-10.9-12.1-17.4-23.8-15.6c8.2,10.8,9.1,22.7,4.1,34.6c-10.3,24.5-27.9,41-54.5,46.4c-25.9,5.3-51,1.2-75.4-8  c-21.4-8.1-43.1-15.9-63.4-29.8c0.6,2.3,0.8,3.2,1.1,4c11,26.4,24.7,51.2,42.5,73.6c1.7,2.2,4,3.4,6.3,4.7  C228.8,229.1,250,228,271.3,224z M221.7,181.6c-0.5-1.6-1.1-3.2,0.8-4.2c2.2-1.1,3.2,0.6,3.9,2.3c3.6,8.7,9.8,15,17.8,19.7  c17.2,10.2,38.9,7.2,52.8-7.3c0.6-0.6,1.2-1.3,1.8-2c1.1-1.1,2.4-1.7,3.7-0.4c1.3,1.2,0.8,2.6-0.2,3.8c-3.2,3.8-6.8,7.2-11.1,9.7  c-8.7,5.1-18.3,7.4-28.3,7.6C247.6,211,226.5,195.9,221.7,181.6z"/></svg>