<?xml version="1.0" ?><svg xmlns="http://www.w3.org/2000/svg" xmlns:xlink="http://www.w3.org/1999/xlink" version="1.1" id="Layer_1" viewBox="0 0 512 512" enable-background="new 0 0 512 512" xml:space="preserve"><path d="M440.2,125.9c-4.3,0.3-8.5,0.9-12.8,1.4c-1.8,0.2-3.5,0.8-3.6-2.2c-0.2-3.9-2.8-5.9-6.4-6c-4.2-0.1-4.1-1.9-3.1-5.1  c1.9-6.3,3.8-12.7,3.8-19.5c0-5.2-2.6-6.8-7.3-4.7c-2.3,1-4.4,2.4-6.5,3.8c-8.6,6.2-16.6,13.1-24.8,19.8c-7.8,6.4-12.3,14-10.8,24.2  c1.5,10.3-2.1,17.8-10.9,23.5c-3.6,2.3-4.5,2.4-7-1.2c-13.8-20.5-32.7-31.2-57.9-28.9c-8.6,0.8-17,3.2-24.8,6.9  c-39.3,18.4-61,50.6-70.7,91.9c-0.4,1.8,0,3.9-2,5.6c-2.9-3.1-5.6-5.9-8.3-8.7c-10.2-11-19.5-23.1-30.9-32.9  c-31.8-27.3-80.7-11.1-89.8,29.9c-4.7,21.3-2.8,42.1,6.8,61.9c11.3,23.3,26.6,43.4,48.5,57.8c3,2,3,3.1,0.2,5.3  c-7.1,5.4-14.2,11-21,16.8c-2.8,2.3-3.8,1.7-5.4-1.3c-4.3-7.8-12.2-9-18.8-3c-5.1,4.6-7.8,10.6-9.5,17.2  c-3.3,13.4-1.6,26.7,0.2,40.1c0.4,3.2,2.4,4.8,5.6,4.5c15.4-1.1,29.7-5.4,41.5-15.7c9.9-8.7,9.2-17.6-1.7-25.5  c9.1-8.6,18.3-16.3,27.7-23.8c2.3-1.8,4.1-1.3,6.4-0.1c18.5,9.3,38.2,15.4,57.9,21.6c6.5,2,12.3,1.9,18.7-0.1  c52.5-16.8,94.5-47,121.2-95.9c14.1-25.9,22.8-54,18.8-83.6c-1.7-12.5,1.1-19.7,10.5-26.3c3.2-2.2,5.7-3.7,9.6-2.8  c12.1,2.9,22.6-0.4,31.7-8.7c5-4.6,10.6-8.5,15.8-13c4.8-4.1,9.4-8.3,13.9-12.7c1.9-1.9,3.8-4.2,2.5-7.1  C446.2,125.9,443.1,125.7,440.2,125.9z M216.4,237c4.6-7.2,10.3-13.3,17.4-18.1c16-10.8,31.4-4.7,35.8,14.2c1.8,7.6,1.9,15.4,0.4,23  c-4,19.8-16.1,35.1-29.2,50.8c-0.2-3.4,1.4-5,2.3-6.8c6.1-11.9,9.9-24.6,11.7-37.8c0.9-6.5,0.6-12.9-1.9-19.1  c-4.6-11.5-15-15.6-26.3-10.5c-4.1,1.9-7.6,4.7-11.1,7.6C214.5,238.7,215.9,237.9,216.4,237z M152,273.9c0.3-8.3,3.5-14.8,11.5-18.5  c8.1-3.7,14.9-1.3,22.1,4.1c-20.6,5.5-26.9,20.4-17,39c1.3,2.4,2.7,4.7,4.2,6.8c1.3,1.8,0.7,2.8-0.8,4c-1.4,1.1-2.4,1.3-3.7,0  C158.5,299.6,151.5,288.5,152,273.9z"/><path fill="#E00B1B" d="M412.8,94.2c-7.1,4.1-13,8.8-18.7,13.9c-0.7,0.6-0.9,1.9-1,3c-1,7.1-2,14.1-2.9,21.1  C406.5,125,412.6,111.7,412.8,94.2z"/><path fill="#E00B1B" d="M98.9,386.6c-5.3,1.3-6.3,0.3-6.1-5.3c0.1-3,0.4-6.1,0-9.1c-0.5-3.9-1.3-8.2-6-9.2c-4.5-1-7.3,2.1-9.7,5.5  c-1,1.5-1.9,3.1-2.6,4.7c-3.5,7.3-3.9,15.2-4,23.1c0.5,5.9,1,11.8,1.3,17.7c0.2,3.1,1.1,4.5,4.6,3.9c6.9-1.1,13.8-2.4,20.2-5.4  c6.3-3,12.7-6,17.2-11.6c4.7-5.9,2.8-11.9-4.3-14.2C105.9,385.4,102.4,385.7,98.9,386.6z"/><path fill="#40CAD2" d="M211.9,293.7c0.9-1,1.5-2.6,0.2-3.9c-1.1-1-2.3-0.7-3.5-0.1c-1.9,1.1-3.7,2.2-5.5,3.4  c-35,24.8-68.3,51.6-101.6,78.6c-1,0.8-2,1.6-2.6,2.6c-1,1.6-0.8,3.5-0.3,5.2c0.5,2.1,2.4,0.8,3.6,0.9c4,0.9,6.5-1.6,9-3.9  c10.2-9.3,20.8-18.1,31.7-26.6c20.9-16.4,41.6-32.9,62.3-49.5C207.5,298.5,209.7,296.1,211.9,293.7z"/><path fill="#E00B1B" d="M193.9,267.7c-1.5-0.6-3.1-1.1-4.6-1.4c-11.1-2.7-19.3,3.3-20,14.7c-0.5,7.6,2.8,13.9,6.6,20.1  c1.8,2.9,3.2,3.3,6.2,1c7.7-5.9,15.7-11.3,23.7-16.7c3.7-2.5,7.7-2.1,10.7,1.3c2.9,3.4,1.9,7.1-0.6,10.4c-1.4,1.8-3.1,3.5-4.9,5  c-5.3,4.5-10.6,9.1-16.1,13.4c-2.3,1.8-2.6,3.1-0.1,4.8c1,0.7,2,1.6,3,2.2c18.8,11.5,13.5,13.3,27.8-4.3  c14.6-17.9,22.9-38.8,24.8-61.6c-0.5-8.4-1.4-16.3-9.7-20c-8-3.6-14.1,1.5-19.8,6.2c-6.3,5.2-10.4,12.3-13.9,19.6  C202.6,271,202.6,271.1,193.9,267.7z"/><path fill="#FFB6B9" d="M276.4,139.9c-18,6.7-32.9,17.2-45,32c-16.2,19.8-28.2,41.5-29.8,67.7c-0.2,3.9-3.4,4.9-6.9,1.8  c-4.4-4-8.4-8.3-12.4-12.7c-9.1-9.9-17.5-20.4-27.5-29.5c-13.7-12.4-29.6-18.4-47.5-12.1c-18.8,6.6-32.3,19.1-36.4,39.7  c-2,9.9-2.6,20-0.9,30c6.3,36.4,26.8,63.4,56.6,84.1c2.2,1.5,3.8,1.3,5.7-0.4c4.1-3.5,8.2-7,12.6-10c3.3-2.3,2.6-3.6,0-5.8  c-10.2-8.7-18.9-18.7-25.4-30.4c-8.5-15.3-10.6-31.5-5-48.3c6.2-18.6,21.5-26.4,40.4-20.9c6.3,1.8,11.9,4.9,17.3,8.4  c9.8,6.4,18.3,14.4,27,23.5c0.6-2.2,1-3.5,1.4-4.9c3.9-15,8.5-29.7,16.6-43c12.4-20.3,29-35.7,52.4-41.9c24-6.4,44.1,7.3,47.8,31.8  c1.4,8.9,1.1,17.9-0.2,26.8c-2.2,15.3-7.3,29.6-14.8,43c-20.8,36.9-48.9,67.1-85.3,89.1c-3,1.8-5.9,2.9-9.5,1.3  c-9.8-4.4-20.4-7.4-29.4-13.1c-10.4-6.5-18.1-5.7-26.3,3c-3.8,4.1-4.4,3.6,0.9,6.1c18.9,8.9,38.7,15.1,58.7,20.9  c2.1,0.6,3.8,0.1,5.8-0.4c20-4.6,38-13.5,55.4-24.3c44.1-27.5,73.6-65.3,84.3-116.9c3.9-18.7,3.2-36.9-2.5-55.2  C344.3,147.3,313.4,126.2,276.4,139.9z"/><path fill="#40CAD2" d="M413.2,133.3c2.3-2,4.5-4.1,5.5-7.1c0-2.5-2-2.2-3.5-2.3c-4.9-0.3-8.5,2.5-12,5.3  c-14.6,12.1-29,24.5-43.6,36.6c-3,2.5-3.4,4.6-2,8.2c1.5,4.2,2.4,5.6,6.4,1.9c7.9-7.5,16.2-14.6,24.5-21.8  C396.7,147,405,140.2,413.2,133.3z"/><path fill="#FF5F8D" d="M151.1,229.4c-14.5-3.5-25.6,2.1-31.1,16.1c-6.3,15.8-4.4,31.4,3.7,46.1c5.8,10.6,13.7,19.7,22.6,27.8  c5.7,5.2,5.8,5.2,12.1,0.6c7.4-5.4,7.3-5.3,1.6-12.1c-9.3-11-14.9-23.3-12.7-38c2.7-17.8,20.4-26.3,36.2-17.9c1.8,1,3.6,2.1,5.5,3.1  C178.4,243.4,166.8,233.2,151.1,229.4z"/><path fill="#FF5F8D" d="M229.6,325.9c-14.9,14.4-20.7,15-39.2,5.3c-9.4-4.9-9.2-4.7-17.7,1.9c-3.6,2.8-2.7,3.9,0.7,5.6  c11.5,5.9,23.6,10.4,35.4,15.6c2.6,1.1,4.5,0.2,6.5-1c37.2-23,65.9-53.9,85.7-92.8c9.6-18.9,14.3-39,11.5-60.4  c-2.3-17.4-13-27.8-29.9-29.1c-6.4-0.5-12.6,0.6-18.4,3.1c-26.6,11.3-42.9,31.9-51.9,58.9c5.4-7,11.5-13.3,18.9-18.1  c19.6-13,39.4-4.7,43.5,18.5c2.5,13.7,1.3,27.1-5,39.9C259.9,293.4,245.7,310.4,229.6,325.9z"/><path fill="#E00B1B" d="M384.3,165.1c13.3,3.6,27.3-2.4,36-15.3C403.5,149,396.2,152.1,384.3,165.1z"/><path fill="#E00B1B" d="M383.8,138c1-7.8,3.8-15.5,3.3-23.7c-12.3,7.3-14.7,13.3-13,32.9C378,143.7,383.4,141.2,383.8,138z"/><path fill="#E00B1B" d="M409.2,144.5c14.7,2,28.4-3.6,32.3-13.4C428.8,131,416.9,132.7,409.2,144.5z"/></svg>