<?xml version="1.0" ?><svg xmlns="http://www.w3.org/2000/svg" xmlns:xlink="http://www.w3.org/1999/xlink" version="1.1" id="Layer_1" viewBox="0 0 512 512" enable-background="new 0 0 512 512" xml:space="preserve"><path d="M255.3,148.4c-5.9,4.3-11,9.4-14.6,15.7c-1.7,3-2.9,4-6.3,1.8c-9.1-5.9-19.3-6.7-29.6-3.9c-29.9,8.1-44.4,40.3-31.1,68.9  c1.9,4.1,4.6,7.9,6.5,12.1c12.2,27,29.3,48.6,59.9,55.7c3.3,0.8,4.2,2.1,3.5,5.4c-1.8,8.5,0,16.5,3.7,24.1c1,2.1,2.1,4.6,5.2,4.1  c2.6-0.5,3-2.8,3.5-5c1-4.5,2.2-8.9,4.8-12.8c1.8-2.7,3.1-3.5,4.5,0.4c2.1,5.7,4.6,11.3,6.9,17c1,2.4,1.3,5.4,4.6,5.7  c2.9,0.2,3.9-2.4,5.2-4.3c0.6-0.9,1.2-1.7,2.2-3.1c3.4,5.5,6.5,10.5,9.7,15.6c-26.4-12-51.4-9-75.9,4.2c-6.4,3.4-13.5,5.1-20.8,5  c-2.4,0-5.1-0.7-6.5,2c-1.5,2.9,0.7,5,2.3,7c13.4,17.2,30.5,29.2,51.3,35.7c20.5,6.4,40.5,5.6,59.5-5.3c3.8-2.2,7.8-4,11.8-5.5  c6.2-2.3,11.3-1.5,16.4,3.8c18.4,19.1,38.3,36.4,62.3,48.4c5.9,2.9,11.9,5.5,18.4,6.7c7,1.4,12.9-1.1,15.2-6.1  c3.2-6.9,1.4-11.6-6.5-15c-17.1-7.4-33.3-16.3-48.2-27.5c-1.9-1.5-4.6-2.5-5-5.2c17.6-11.4,25.9-27.6,26-48  c0.1-11.2-2.6-22.1-4.5-33c-2.8-16.1-4.1-32,2.8-47.6c2.1-4.8,0-7.2-5.2-6.4c-10.3,1.6-19.8,5.2-27.3,12.9  c-12.1,12.6-20.4,27.1-23.4,44.5c-2.8,16.1-2.6,32,0.8,48.2c-16.5-19.7-31.2-40.5-43.4-64.4c6.1,0.6,10.1,3,14.3,4.7  c4.5,1.9,7.5,0.3,7.6-4.7c0.2-9.9-2.2-18.9-11.4-24.1c-4.3-2.4-3.7-4.3-2.1-8.1c9.2-20.4,13.3-41.5,7-63.7c-2.7-9.5-4.7-19-5.9-28.8  c-1-8.5-4.8-15.7-10.3-22.2C282,139.9,269.5,138.3,255.3,148.4z"/><path d="M144.9,263.9c-3.7,2-6.9,4.7-9.3,8.1c-3.2,4.4-6,9-9.2,13.7c-5.3-4.3-10.1-9.2-16.5-11.7c-13.4-5.3-26.1,2.6-27.4,17  c-0.6,7.6,1.1,14.8,4.4,21.5c5.3,10.7,13.6,18.6,23,25.6c13.2,9.8,13.3,9.9,26.2,0c13.9-10.6,25.6-23.2,32.3-39.6  c3.1-7.6,4.7-15.4,2.4-23.7C167.4,263,155.9,258.1,144.9,263.9z"/><path d="M349.3,65.8c-8-3.8-15.3-1.4-21.9,3.8c-1.4,1.1-3,2.1-3.8,3.6c-4.8,9.3-11.2,11-19.7,4.7c-1-0.7-2.5-0.8-3.8-1  c-13.6-2.7-23.8,6.6-22.2,20.5c0.8,6.7,3.9,12.5,8.3,17.5c9.3,10.7,21.2,18,33.8,24c2.5,1.2,4.2,0.7,6.5-0.9  c10.2-7.5,18.1-17,24.7-27.6c4.8-7.7,7.5-16.2,7.8-25.8C359,77,357.3,69.6,349.3,65.8z"/><path d="M340.3,192.6c0.3,8.8,4.7,15.3,11,20.3c7,5.5,14.7,10.3,22,15.4c2,1.4,4.1,1.7,6,0.1c11.9-9.6,24.6-18.4,31.7-32.6  c5.4-10.6,4.5-18.9-2.5-24.4c-7.2-5.7-17-4.6-25.7,2.8c-1.3,1.1-2.8,2.3-3.6,3.8c-2.9,5.5-5.7,5.1-10.2,1.3  c-5.4-4.6-11.9-6.8-18.8-3.1C343.9,179.8,340.7,185.5,340.3,192.6z"/><path fill="#40CAD2" d="M292.2,283.6c-9.2,9.9-20.7,14.8-33.9,16.4c-8.3,1-9.3,1.9-9.1,10.4c0,3,0,6.1,2.1,9.4  c2.6-5.4,4.9-10.6,9.4-14.3c4.6-3.8,7.2-3.2,8.9,2.6c1.9,6.7,4.6,13.1,8.3,20.5c4-9.9,7.9-18.4,8.8-27.8c0.6-7,2.1-8.2,8.9-7.1  c2.1,0.4,4.2,1.1,6.3,1.5c2.5,0.5,5.4,3.5,7.1,1.7c2.2-2.3-0.1-5.8-1.1-8.5c-0.7-1.8-1.8-3.5-3.1-4.9  C299.8,278.4,297,278.4,292.2,283.6z"/><path fill="#E00B1B" d="M158.2,268.4c-6.4-2.8-11.4,0.7-15.8,5c-4.5,4.3-7.5,9.6-9.9,15.3c-3.4,8.2-4.6,8.4-10.9,1.8  c-3.8-4-7.7-7.7-12.7-10.1c-9.9-4.7-18.6-0.1-20.2,10.7c-0.9,6,0.5,11.7,3,17.2c6.2,13.5,17.1,22.3,29.3,29.9c2.3,1.5,4,0.6,5.9-0.7  c9.7-7.1,19-14.7,26.2-24.4c6.6-8.8,11.9-18.3,12.5-29.9C165.3,277.3,164.6,271.2,158.2,268.4z"/><path fill="#FFB6B9" d="M253.6,247.7c-21.7-0.5-41-7.6-57.1-22.4c-3.9-3.6-7.2-7.7-9-12.7c-4.1-10.9-5.5-21.9,2.3-31.7  c8.1-10,19.3-12,31.4-10c4.5,0.7,8.7,2.5,13.1,4.1c-2.2-4.4-6.1-6.2-10.4-7.1c-15.6-3.5-28.6,1.6-38.8,13.2  c-12.6,14.5-13.8,34.7-3.6,51.9c12.3,20.8,31.7,30.5,54.6,34.4c20.7,3.5,35.7-3.3,46.7-21.1c10.2-16.6,14.6-35,15.7-54.1  c0.3-4.9,1-10.2-1.9-16c-3.7,22.9-13.8,42.1-24.4,61.3C267.8,245.4,261.7,247.9,253.6,247.7z"/><path fill="#E00B1B" d="M241.1,177.9c-2.2,6.7-3.7,7.3-9.8,3.5c-6.8-4.2-14.1-5.8-21.9-4.7c-13.2,2-20.1,11.4-18.5,24.6  c1.2,9.2,5.6,16.5,12.7,22.1c13.9,11.1,30,16.5,46.6,18.3c6.1-0.5,11.6,0.5,15-5.1c9.3-15.6,18-31.4,22.7-49.1  c2-7.4,3.3-14.9,2.1-22.6c-2.4-14.8-15.6-21-28.3-13.2C251.6,157.8,244.8,166.6,241.1,177.9z"/><path fill="#E00B1B" d="M346.8,71.5c-5.5-2.8-10.6-0.7-15.2,2.7c-4.3,3.1-7.6,7.3-9.9,12c-2.5,5.1-5.5,5.3-9.9,2.5  c-3.6-2.4-7.5-4.4-11.8-5.5c-10-2.6-16.9,3.4-15.8,13.7c0.6,5.7,3.3,10.4,7,14.4c7.9,8.6,17.6,14.8,27.8,20.3c1.9,1,3.7,1.4,5.5,0  c15-12.1,26.4-26.4,28.4-44.7C352.8,79.6,352.2,74.2,346.8,71.5z"/><path fill="#FFB6B9" d="M244.7,274.5c-15-0.7-29.2-4.9-42.3-12.4c-1.6-0.9-2.9-2.5-5.2-2.3c6.9,14.6,21.2,25.7,41.1,32  c22.2,7,46.6-3.1,57.3-23.8c6.7-13,10.2-26.9,10.8-41.5c0.3-6.1-0.3-12.2-3-19.5c-0.9,3.8-1.3,5.9-1.8,8  c-3.3,14.9-8.6,28.9-18.2,40.9C273.5,268.3,260.7,275.2,244.7,274.5z"/><path fill="#40CAD2" d="M256.7,366.1c-8.2,1-16.4,2.2-24.6,3.3c-2.1,0.3-4.1,0.2-4.6-2.4c-0.4-2.2,1.2-3.2,3.1-3.5  c24-4.2,48-7.4,71.6,2c2.2,0.9,4.1,2.7,7.2,2.2c-22.7-23.7-49.8-29.2-79-16.3c-9.8,4.3-19.4,8.9-31.3,9.7  c33.9,38.8,75.4,47.9,118.1,19.5C298.7,368.2,278.6,363.5,256.7,366.1z"/><path fill="#E00B1B" d="M346.5,192.5c0.3,5,2.5,8.9,5.6,12.4c3.8,4.3,8.6,7.3,13.4,10.4c11.4,7.5,11.4,7.5,21.9-1.3  c8.4-7.1,16.2-14.6,20.1-25.2c1.6-4.3,1.8-8.6-2.1-12c-3.9-3.4-8.2-3.5-12.8-1.5c-5.1,2.3-8.9,6.1-11.7,11c-4,6.9-4.7,7-10.9,1.5  c-2-1.7-4-3.4-6.2-4.8c-3.4-2.2-7.1-3.4-11.1-1.1C348.6,184.3,346.9,188.1,346.5,192.5z"/><path fill="#40CAD2" d="M356.4,383.9c-0.7-3.8-1.3-6.5-1.7-9.3c-3.7-25.1-3.9-50,4.3-74.4c0.8-2.4,1.2-6.6,5.3-4.9  c3.5,1.4,1.1,4.5,0.4,6.8c-8.5,26.7-7.9,53.7-2,80.8c1.1,5.1,3.2,5.5,7,2.5c11.9-9.4,17.7-21.8,18.5-36.8c0.5-9.7-1.6-19.1-3.2-28.6  c-1.9-11-3.7-21.9-3.5-33.1c0.1-7.1,2.7-13.9,4-21.2c-8.7,1.2-15.3,5-21.1,10.6c-27.6,26.6-27,70.8-16.9,94.5  C349.2,375.2,350.1,380.9,356.4,383.9z"/></svg>