<?xml version="1.0" ?><svg xmlns="http://www.w3.org/2000/svg" xmlns:xlink="http://www.w3.org/1999/xlink" version="1.1" id="Layer_1" viewBox="0 0 512 512" enable-background="new 0 0 512 512" xml:space="preserve"><path d="M443.9,144.2c-2.9-0.1-5.8,0.1-8.7,0.2c-6.8,0.2-13.2,2.5-20.6,3.6c1.4-2.4,2.3-3.9,3.1-5.4c4.5-8.6,4-15.9-1.2-19.4  c-4.8-3.2-11.8-1-18.1,5.9c-7.2,7.8-10.3,17.5-12.1,27.7c-0.4,2.1,0,4.6-2.2,6.1c-6.8,4.7-13.5,9.4-20.7,14.3c0.2-3,0.7-5.2,0.5-7.4  c-0.4-5.9-2.4-11.2-8.6-13c-5.9-1.8-9.2,2.2-11.4,6.9c-1.4,3-2.8,2.6-5,0.9c-5.4-4.3-10.8-8.6-16.3-12.7c-3.4-2.5-3-4.6,0.5-6.4  c5.5-2.9,11.1-5.7,16.6-8.5c7.9-4,14.9-9,19.7-16.5c2-3.1,3.3-6.5,0.5-9.9c-2.6-3.2-6.2-3.1-9.8-1.9c-6.1,2.1-10.5,6.6-15,10.9  c-6.8,6.4-11.9,14.2-18.6,22.2c-0.8-6.1-1.3-11.1-3.3-15.7c-2.3-5.1-4.7-10.7-11.3-11c-6.9-0.3-8.2,5.6-10.1,10.6  c-0.1,0.1-0.3,0.2-0.9,0.6c-2.1-1.7-4.4-3.4-6.6-5.2c-7.7-6.4-15.4-12.7-23-19.3c-3.9-3.3-7.3-3.3-11.2,0  c-8.3,7.1-16.8,13.9-25.1,21c-3.4,2.9-5.2,4.5-7.3-1.5c-2.6-7.8-10.3-8.5-15.6-2.1c-3.7,4.4-5.1,9.8-6.2,15.3c-0.4,2,0.2,4.4-2,6.2  c-3.2-4.1-6-8.1-9.1-11.8c-6.3-7.5-12.7-15-21.6-19.6c-4-2-8.3-2.8-11.6,1.2c-3.1,3.8-1.2,7.6,1.2,11c5.1,7,11.9,11.9,19.6,15.7  c5.4,2.7,10.7,5.4,16,8.2c3.4,1.8,4,3.8,0.5,6.4c-5.4,3.9-10.7,8-15.8,12.3c-2.6,2.2-4.1,2.6-5.8-1c-2-4.2-5-7.8-10.3-6.6  c-5.7,1.3-8.3,5.7-9,11.2c-0.4,2.9-0.1,5.8-0.1,9.4c-5.3-3.8-9.4-7.3-13.9-9.9c-5.6-3.2-8.5-7.3-9.5-13.9  c-1.8-11.9-6.8-22.6-17.5-29.5c-3.7-2.4-7.9-3.4-11.9-0.6c-4.2,2.9-4.8,7.2-3.9,11.9c0.8,4.4,3.5,8,5.6,12.9  c-3.3-0.7-5.8-1.3-8.4-1.9c-6.7-1.6-13.6-2.5-20.5-2.2c-2.2,0.1-4.2,0.6-4.1,3.3c0.1,2.6,2.2,3,4.4,3c1.6,0,3.1,0,4.7,0  c17.4,0.6,32.6,7.6,47.3,16.5c-6.2,1-12.1,1.5-17.3,5c-4.2,2.8-6.6,6.7-5.7,11.9c0.9,5.2,4.5,8.1,9.4,9.2c7.3,1.6,14.2,0.2,20.6-3.5  c3.9-2.2,7.6-4.6,11.3-7.1c2.7-1.8,4.7-0.9,6.4,1.2c2.1,2.6-0.8,3.4-2.1,4.5c-8.6,7.1-17,14.4-26,20.8c-5.7,4-6.9,8.6-6.9,15.1  c0.2,59.6,0.3,119.2,0,178.8c-0.1,11.5,0.4,9.8,9.4,9.8c89.1,0.2,178.3,0.3,267.4,0.4c14.8,0,14.8,0,14.8-15.1  c0.1-58.5,0.1-117,0.3-175.4c0-5.3-1.1-9-5.7-12.3c-9.3-6.8-18.1-14.4-27-21.8c-1.4-1.2-4.8-1.9-2-5c1.9-2.1,3.9-2.7,6.3-0.7  c1.9,1.5,4.1,2.6,6.1,4c6.2,4.3,12.9,7.1,20.5,7c8,0,13.6-3.9,14.6-10c1-5.9-3.2-11.7-10.8-14c-4-1.2-8.3-1.7-13.6-2.7  c11.1-6.3,21.6-11.1,32.8-14.1c6.7-1.8,13.5-2.6,20.5-2.4c2.1,0.1,4.3-0.2,4.5-2.8C448.2,144.8,446.1,144.2,443.9,144.2z"/><path fill="#40CAD2" d="M244.5,172.2c-0.3-2.2-0.9-4.9-3.3-5.3c-2.5-0.4-3.7,2.2-4.5,4.2c-4.1,10.4-4.1,21.3-3.8,32.4  C241.8,194.8,246.4,184.7,244.5,172.2z"/><path fill="#FF5F8D" d="M166.7,257.9c28.1,23.5,55.4,48.1,84.4,70.6c3.8,2.9,5.9,2.7,9.5,0c27.7-21.3,53.2-45.3,80.7-66.7  c8.6-6.7,11.3-14.8,11.3-24.8c0.3-27.2-20.9-40.6-45.2-28.6c-1.8,0.9-3.5,1.9-5.2,3c-17.5,10.8-29.6,26.6-40,43.9  c-1.8,2.9-2.2,7.9-6.2,7.9c-4.1,0.1-4.4-5-6.2-7.9c-12.3-19.9-26.2-38.2-48.3-48.3c-18.7-8.5-35.3-1.1-40.5,18.7  C158,237,156.4,249.3,166.7,257.9z"/><path fill="#40CAD2" d="M166.8,192.5c-1.1-7.6-1.9-15.2-3.3-22.8c-0.6-3-1.4-7.7-5.6-6.7c-3.9,0.9-4.2,5.4-3.6,9  C155.7,180.3,160.4,186.9,166.8,192.5z"/><path fill="#FFB6B9" d="M156.3,212.7c4.7,0,7.5-4.4,7.9-7c0.9-6-5.7-8.6-8.9-12.8c-1.2-1.6-2.7-3.9-5.5-2.4  c-0.4,0.2-0.7,0.5-1.1,0.8c-8.3,6.6-16.6,13.2-24.9,19.8c0.2,0.5,0.4,1,0.6,1.6C135.1,212.7,145.7,212.7,156.3,212.7z"/><path fill="#A089E4" d="M153.2,218.9c-9.4-0.1-18.9,0-28.3,0c-0.2,0.6-0.4,1.1-0.6,1.7c9.4,8.4,18.8,16.9,28.2,25.3  c-0.1-8.4,0.4-15.9,2.6-23.2C155.6,220.9,156,218.9,153.2,218.9z"/><path fill="#40CAD2" d="M212.7,134.9c0.8-3.2,1.1-6.5,0.2-9.8c-0.4-1.5-0.9-3.2-2.6-3.6c-1.7-0.4-2.7,1.1-3.7,2.4  c-6.1,7.7-6.6,23.7-0.1,34C208.9,149.3,210.8,142.1,212.7,134.9z"/><path fill="#FFB6B9" d="M176.7,199c16.5-4.9,29.8,2.3,42.8,11.2c1.7,1.1,3.2,3.2,5.8,1.6c-0.1-4-2.6-7.1-3.7-10.7  c-2.2-7.2-6.7-10.6-14.4-10.9c-7.1-0.2-14-2.3-20.3-5.9c-8-4.6-9.4-8.2-6.8-16.6c-3.9,1.8-8.5,3.6-8.5,8.7  c0.1,6.6,1.2,13.2,1.8,19.9C173.7,198.2,174.1,199.7,176.7,199z"/><path fill="#40CAD2" d="M203.9,168.4c-10-15-4.4-16.6-18.4-5.7c-1.8,1.4-4.1,2.3-5.1,4.7C187.9,164.2,195.5,164.2,203.9,168.4z"/><path fill="#FFB6B9" d="M350.1,200c-1.4,1.7-4.7,3.3-2.7,6c2,2.6,3.3,6.8,7.5,6.8c10.8,0.2,21.5,0,32.3,0c0.2-0.5,0.3-1,0.5-1.6  c-5.5-4.4-11-8.9-16.5-13.3C359.7,188.7,359.6,188.7,350.1,200z"/><path fill="#40CAD2" d="M400.7,187.2c3.3,0,7-0.9,7.6-5c0.6-3.7-2.5-5.4-5.5-6.5c-8.3-2.9-16.4-1.8-25.3,1.2  C384.7,183.3,391.9,187.2,400.7,187.2z"/><path fill="#40CAD2" d="M413,128.7c-2.7-1.9-5.1,0.3-7.1,1.9c-8,6.8-11.4,15.9-13.3,27.5c10.6-5.6,17.2-12.6,21.1-22.1  C414.7,133.6,415.6,130.5,413,128.7z"/><path fill="#A089E4" d="M382.8,401.9c-33.5-21.9-67-43.6-100.5-65.5c-11.9-7.8-11.9-7.9-23.2,1.4c-2.6,2.1-4.4,2.4-6.8,0  c-1.9-1.9-4.2-3.3-6-5.2c-3.4-3.5-6.5-3.1-10.5-0.5c-35.9,23.4-71.9,46.7-107.8,70.1c-1.3,0.9-3.4,1.2-3.7,3.9  c87.6,0,175.2,0,262.9,0C386.6,403.3,384.4,402.9,382.8,401.9z"/><path fill="#A089E4" d="M387.7,220.6c-9.9-1.5-19.1-1.5-28.4-1.6c-2.9,0-3.2,1.6-2.5,3.9c2.2,7.3,2.7,14.7,2.8,23  C368.9,237.5,378.3,229.1,387.7,220.6z"/><path fill="#A089E4" d="M235.5,324.7c-39.7-34.2-80-66.5-118.7-102.3c-0.3,2-0.5,2.6-0.5,3.3c0,56.6,0,113.3,0,169.9  c0,1.6-0.9,3.9,1,4.8c1.8,0.8,3.1-1.1,4.6-2.1c30.2-19.5,60.4-39,90.6-58.6C220.1,334.8,227.7,329.8,235.5,324.7z"/><path fill="#A089E4" d="M280.2,320.9c-3.7,3.1-3.6,4.4,0.4,6.9c36.6,23.6,73.1,47.4,109.5,71.3c3.8,2.5,5.6,2.4,5.2-2.7  c-0.1-1.1,0-2.2,0-3.3c0.1-54.5,0.2-108.9,0.2-163.4c0-1.9,0.5-4-1-6.6c-2.7,2.5-4.9,4.6-7.2,6.6  C352.4,261.1,316.2,290.8,280.2,320.9z"/><path fill="#40CAD2" d="M190.1,171.5c-1.9,0.1-4.4-0.1-4.9,2.3c-0.4,2,1.6,3,3,4c7,4.7,15.2,5.6,25,7C206,177.3,200,171,190.1,171.5  z"/><path fill="#40CAD2" d="M106.4,130.7c-1.9-1.7-4.3-4-7.1-2.3c-3.1,1.9-2.1,5.1-0.9,7.8c3.9,9.3,10.3,16.3,20.9,21.5  C117.4,146.4,114.1,137.4,106.4,130.7z"/><path fill="#40CAD2" d="M157.3,114.6c4.4,9.4,12.4,14.4,21.7,17.6C173,124.8,167.4,116.9,157.3,114.6z"/><path fill="#40CAD2" d="M355.7,114.7c-8.1,1-18.7,9.8-22.5,18.5C342.4,128.9,350.4,124.1,355.7,114.7z"/><path fill="#40CAD2" d="M306.1,125.2c-0.9-1.7-2-4-4.2-3.7c-2.7,0.4-3,3.1-3,5.2c-0.2,10.6,3.4,20.2,7.4,29.8  C311.1,146.1,311.5,135.6,306.1,125.2z"/><path fill="#40CAD2" d="M109,175.4c-3,1-6,2.8-5.5,6.5c0.5,4.2,4.2,4.9,7.5,5c8.8,0.2,16-3.7,23.2-10.1  C125.3,173.4,117.2,172.8,109,175.4z"/><path fill="#FFB6B9" d="M211.4,166.3c4.2,9,9,17.8,14.3,28.2c1.6-9.8,1.6-17.9,5-25.3c2.2-4.8,4.9-9.6,11.1-8.7  c6.1,0.9,8,6,8.8,11.2c1.7,10.1-0.8,19.4-6.2,28c-2.6,4.1-5.7,7.8-9.1,12.5c14.1,0,27.3,0,41.2,0c-2.8-3.6-5.1-6.3-7.1-9.1  c-6.4-9-10-18.9-8.6-30c0.7-5.6,2.3-11.5,9.1-12.4c6.9-0.9,9.4,4.7,11.6,9.9c1.8,4.3,2.6,9,3.1,13.6c0.3,2.9,0.7,5.9,1.2,10.3  c1.4-2.3,2-3.2,2.6-4c10.4-15.3,15.3-31.1,5.6-48.8c-1.3-2.4-1.1-5.6-3.6-7.6c-10.3-8.5-20.6-16.9-30.7-25.6c-3.1-2.7-5.3-2.1-8,0.3  c-4.6,4.1-9,8.9-14.3,12c-15.2,8.9-21.9,22.9-25.3,39.2C211.8,162,210.7,164.6,211.4,166.3z"/><path fill="#40CAD2" d="M351.3,186.5c3-5.3,6.9-10.4,6.4-17c-0.2-3-1-6.2-4.3-6.6c-2.8-0.3-3.7,2.8-4.4,5  c-2.5,7.8-2.9,15.8-3.5,23.8c0.5,0.2,1,0.3,1.6,0.5C348.5,190.4,350.1,188.6,351.3,186.5z"/><path fill="#40CAD2" d="M326.5,173.4c-0.6-1.7-2.9-1.8-4.7-1.9c-9.7-0.5-15.7,5.6-21.4,12.4c8.2-0.4,16-1.6,22.9-6  C325,176.9,327.4,175.7,326.5,173.4z"/><path fill="#40CAD2" d="M270.8,167c-2.5,0.4-3.1,3.1-3.4,5.2c-1.9,12.5,2.7,22.7,11.6,31.5c0.2-11,0.6-22-3.8-32.5  C274.4,169.3,273.4,166.6,270.8,167z"/><path fill="#FFB6B9" d="M324.2,165.3c4.1,0.8,7.8,2.4,8.9,6.9c1,4.3-1.5,7.2-4.5,9.7c-6.5,5.2-14.2,7.8-22.2,8.2  c-9.4,0.4-14.8,4.5-17,13.3c-0.1,0.2-0.2,0.4-0.3,0.6c-1,2.6-3.9,6-1.8,7.9c2.4,2.2,4.9-1.5,7.2-3c12.2-8,24.8-14.2,40-9.9  c3.3,1,3.7-0.7,4.2-3.2c3-13.5,3.6-26.1-11.9-32.8c-0.6-0.3-1-0.8-1.6-1.2c-2.7-2-5.2-5.4-8-5.7c-4.1-0.4-3.5,5.3-6.2,7.5  c-1,0.8-2,1.8-2.1,4C314.2,166.3,319,164.2,324.2,165.3z"/><path fill="#A089E4" d="M243.6,219c-2.4,0.1-5.9-1.4-7.1,1.7c-1.1,2.8,0.7,5.6,2.5,7.9c5.8,7.6,11.4,15.3,16.9,24.8  c5.4-9.8,12-17.6,17.6-26.1c4.3-6.4,3.1-8.3-4-8.4C260.9,219,252.3,218.8,243.6,219z"/></svg>