<?xml version="1.0" ?><svg xmlns="http://www.w3.org/2000/svg" xmlns:xlink="http://www.w3.org/1999/xlink" version="1.1" id="Layer_1" viewBox="0 0 512 512" enable-background="new 0 0 512 512" xml:space="preserve"><path d="M442,159.6c-16.4-55.2-64.5-78.4-117-54.8c-50.8,22.9-78.4,64.7-90.6,117.8c-0.5,2.2,0,4.6-1.8,6.6c-3-0.9-4.6-3.6-6.5-5.7  c-12.9-14-25.5-28.2-38.6-41.9c-11.5-12.1-25.6-19.6-42.3-22.5c-31.7-5.6-74.9,22.1-79.7,62.7c-1.6,14-2.5,28,0.6,41.7  c10.4,45.8,36.4,80.9,75.3,106.5c34.1,22.5,72.4,34.9,111.3,46c2.3,0.6,4.4,0.4,6.7-0.2c38.8-9.4,72.7-28.7,103.6-53.4  c47.4-37.9,75.3-87.2,83.9-147.2C449.5,196.4,447.4,177.8,442,159.6z"/><path fill="#40CAD2" d="M332.1,108.7c-43.3,17.4-68.7,51-85.4,92.6c-3.9,9.6-5.9,19.7-7,30c-0.3,2.7,1.5,6.5-2.5,7.7  c-3.5,1-6.1-1.3-8.4-3.7c-5.5-5.8-11-11.7-16.5-17.5c-11.5-12.4-22.1-25.7-35-36.9c-22.8-19.7-50.4-21.2-75.4-4.8  c-23.8,15.6-32,38.4-31.4,59.1c0.2,21.5,2.3,36.2,8.4,50c15.8,35.7,39.4,64.6,73.7,84.4c31.4,18.2,65.4,29.6,100,39.7  c2.4,0.7,4.5,0.1,6.7-0.5c28.2-6.7,53.5-19.8,77.6-35.6c53.5-35,88.4-82.8,101.3-146c4.5-22,3.8-43.5-2.2-65.2  C424.1,118.2,383,88.2,332.1,108.7z M380.5,245.7c-12.7,36-35.5,65.3-61.2,92.7c-17.6,18.8-37.6,34.7-59.9,47.9  c-4.6,2.7-8.6,3-13.5,0.8c-11.7-5.3-23.7-9.8-35.3-15.1c-28.8-13-52.2-32.7-70.4-58.5c-12.5-17.8-18-37.4-14.7-59.1  c5.4-35.3,33.2-49.7,65.3-33.9c15.6,7.7,28.6,18.8,40.7,31.2c1.6,1.6,2.7,3.6,4.9,6.6c3-10.3,5.2-18.4,7.7-26.5  c9.5-30.5,25.3-56.8,52.3-75.2c15-10.2,31-17.8,50-15.5c21.6,2.7,36.2,15.7,40.5,37C391.3,201.2,388.2,223.7,380.5,245.7z"/><path fill="#FFB6B9" d="M344.6,147.3c-10.6-1.4-20.5,1.3-29.9,5.9c-31.2,15.3-50.5,40.6-60.9,73.6c1.5-1.9,3-3.9,4.6-5.8  c7.6-9.3,16.2-17.5,27.4-22.4c18-7.8,33.4-2.8,42.4,14.4c9.6,18.4,9.3,38.2,1.8,56.6c-14.7,36.3-39.9,64.8-70.8,88.5  c-3.5,2.7-7.2,3.3-11.6,2.1c-28.5-7.8-51.7-23.2-68.1-47.9c-8-11.9-11.6-25.4-8.9-39.9c4.1-21.8,26.2-32.4,45.9-22  c2.5,1.3,5,2.8,8.3,4.7c-9.3-12.2-30.4-27.3-44.1-32c-22.6-7.7-40.2,1.1-46.9,24.2c-5.9,20.5-2.3,40,8.9,57.9  c9.6,15.3,21.9,28.1,35.9,39.5c21.1,17.3,46.5,26.2,71.1,36.8c2.7,1.2,4.9,0.2,7.1-1.2c50.2-31,88.7-72.7,113.6-126.3  c10.2-22.1,14.8-45.7,11.2-70.3C378.2,162.3,365.8,150,344.6,147.3z"/><path fill="#A089E4" d="M289.6,319.3c13.2-11.3,31.6-39.2,35.7-55.5c4.6-18.3,6-36.8-6.3-53.3c-4.2-5.7-9.8-8.3-17-8.8  c-16.8-1.1-39.3,19.9-43.9,33.3c2.4-1.8,4.3-3.3,6.3-4.6c21.7-14.5,41.2-5.2,43.8,20.8c0.7,7.1-0.4,14.2-1.7,21.2  C303.2,288.7,297.5,304.3,289.6,319.3z"/><path fill="#A089E4" d="M218.6,260.5c-7.6-7.3-15.6-9.3-24.9-6.2c-13.6,4.6-20,18-16.7,34.8c4.1,20.5,17.6,34.2,33.5,46  c5.8,4.3,11.7,8.4,19.1,10.1c-2.7-2.3-5.4-4.5-8.1-6.9c-10.4-9.1-19.9-18.9-25.8-31.7C185.3,284,194.5,265.5,218.6,260.5z"/><path fill="#E00B1B" d="M198.3,287.2c-0.7,8.7,2.3,16.2,6.8,23.3c8.3,12.9,19.2,23.4,32.1,31.5c20.5,12.9,15.1,15.5,31.8-5.1  c18.9-23.2,30.2-49.9,32.8-80c0-4.2-0.3-8.3-1.5-12.3c-4-13.8-14.1-18.4-26.9-12.1c-5.2,2.6-9.7,6-13.5,10.4  c-6.8,7.8-12.1,16.7-15.9,26.3c-1.9,4.8-4.6,6.4-9.5,3.9c-3.2-1.6-6.7-3-10.2-4C210.4,265.1,199.5,272.8,198.3,287.2z"/></svg>